<svg class="download" xmlns="http://www.w3.org/2000/svg" xmlns:xlink="http://www.w3.org/1999/xlink" aria-hidden="true" focusable="false" width="1em" height="1em" style="-ms-transform: rotate(360deg); -webkit-transform: rotate(360deg); transform: rotate(360deg);" preserveAspectRatio="xMidYMid meet" viewBox="0 0 24 24"><path d="M13 11.641l1.121-1.12a1 1 0 0 1 1.415 1.413l-2.829 2.829a.997.997 0 0 1-1.414 0l-2.829-2.829A1 1 0 1 1 9.88 10.52L11 11.641V6a1 1 0 1 1 2 0v5.641zM6 17h12a1 1 0 0 1 0 2H6a1 1 0 0 1 0-2z" fill="#626262"/></svg>
