<svg  xmlns="http://www.w3.org/2000/svg" xmlns:xlink="http://www.w3.org/1999/xlink" aria-hidden="true" focusable="false" width="1em" height="1em" style="-ms-transform: rotate(360deg); -webkit-transform: rotate(360deg); transform: rotate(360deg);" preserveAspectRatio="xMidYMid meet" viewBox="0 0 24 24"><path d="M13.414 12l2.829-2.828a1 1 0 1 0-1.415-1.415L12 10.586L9.172 7.757a1 1 0 0 0-1.415 1.415L10.586 12l-2.829 2.828a1 1 0 0 0 1.415 1.415L12 13.414l2.828 2.829a1 1 0 0 0 1.415-1.415L13.414 12zM6 2h12a4 4 0 0 1 4 4v12a4 4 0 0 1-4 4H6a4 4 0 0 1-4-4V6a4 4 0 0 1 4-4z" fill="#609aff"/></svg>