<svg class="settings" xmlns="http://www.w3.org/2000/svg" xmlns:xlink="http://www.w3.org/1999/xlink" aria-hidden="true" focusable="false" width="1em" height="1em" style="-ms-transform: rotate(360deg); -webkit-transform: rotate(360deg); transform: rotate(360deg);" preserveAspectRatio="xMidYMid meet" viewBox="0 0 24 24"><path d="M11 16V5a1 1 0 1 1 2 0v11h1a1 1 0 0 1 0 2h-1v1a1 1 0 0 1-2 0v-1h-1a1 1 0 0 1 0-2h1zm7-10V5a1 1 0 0 1 2 0v1h1a1 1 0 0 1 0 2h-1v11a1 1 0 0 1-2 0V8h-1a1 1 0 0 1 0-2h1zM6 9h1a1 1 0 1 1 0 2H6v8a1 1 0 0 1-2 0v-8H3a1 1 0 1 1 0-2h1V5a1 1 0 1 1 2 0v4z" fill="#626262"/></svg>
